# xmcd
#
# Track frame offsets:
#	150
#	21115
#	36177
#	59365
#	72330
#	88700
#	105735
#	127420
#	158937
#	184817
#
# Disc length: 2665 seconds
#
# Revision: 0
# Processed by: cddbd v1.5.2PL0 Copyright (c) Steve Scherf et al.
# Submitted via: audiograbber 1.83.01
#
DISCID=8e0a670a
DTITLE=The Bone's Projekt - Hard Work
DYEAR=1997
DGENRE=Blues
TTITLE0=Trouble On Your Mind
TTITLE1=Your Mama and Your Papa
TTITLE2=Movin' On Up
TTITLE3=Hard Work
TTITLE4=Stains
TTITLE5=Why Did I Do It
TTITLE6=Call My Job
TTITLE7=Goin'  Early
TTITLE8=Express Yourself
TTITLE9=Ride To The City
EXTD=
EXTT0=
EXTT1=
EXTT2=
EXTT3=
EXTT4=
EXTT5=
EXTT6=
EXTT7=
EXTT8=
EXTT9=
PLAYORDER=
